# xmcd CD database file
#
# Track frame offsets:
#	150
#	39556
#	67883
#	97600
#	125092
#	152240
#	177595
#
# Disc length: 2694 seconds
#
# Revision: 0
# Processed by: cddbd v1.5.2PL0 Copyright (c) Steve Scherf et al.
# Submitted via: CDex 1.77
#
DISCID=560a8407
DTITLE=Anne Paceo - Fables of shwedagon
DYEAR=2018
DGENRE=Jazz
TTITLE0=Yin padey thar
TTITLE1=Every night has a morning
TTITLE2=Le soleil, la lune, et l'etoile du soir
TTITLE3=Myanmar folk song
TTITLE4=Hla thuzar
TTITLE5=Yamona
TTITLE6=Fables of shwedagon
EXTD=YEAR: 2018
EXTT0=
EXTT1=
EXTT2=
EXTT3=
EXTT4=
EXTT5=
EXTT6=
PLAYORDER=
